<svg xmlns="http://www.w3.org/2000/svg" viewBox="0 0 200 200" width="200" height="200">
  <!-- Background circle -->
  <circle cx="100" cy="100" r="95" fill="#0a0e27" stroke="#00d4ff" stroke-width="2"/>
  
  <!-- Stars in background -->
  <circle cx="30" cy="40" r="2" fill="#00d4ff" opacity="0.8"/>
  <circle cx="170" cy="50" r="2" fill="#ff006e" opacity="0.8"/>
  <circle cx="150" cy="160" r="2" fill="#8338ec" opacity="0.8"/>
  <circle cx="50" cy="170" r="2" fill="#00d4ff" opacity="0.8"/>
  <circle cx="180" cy="120" r="1.5" fill="#ff006e" opacity="0.6"/>
  <circle cx="20" cy="120" r="1.5" fill="#8338ec" opacity="0.6"/>
  
  <!-- Rocket body -->
  <g transform="translate(100, 80)">
    <!-- Rocket main body -->
    <rect x="-15" y="-25" width="30" height="50" rx="5" fill="#00d4ff" opacity="0.9"/>
    
    <!-- Rocket window -->
    <circle cx="0" cy="-15" r="6" fill="#ff006e"/>
    
    <!-- Rocket fins (left) -->
    <polygon points="-15,-5 -25,5 -15,5" fill="#ff006e" opacity="0.9"/>
    
    <!-- Rocket fins (right) -->
    <polygon points="15,-5 25,5 15,5" fill="#8338ec" opacity="0.9"/>
    
    <!-- Rocket nose -->
    <polygon points="-10,-30 0,-40 10,-30" fill="#ff006e"/>
  </g>
  
  <!-- Flame effects -->
  <g transform="translate(100, 130)">
    <!-- Outer flame -->
    <polygon points="-12,0 -8,15 0,18 8,15 12,0" fill="#ff006e" opacity="0.7"/>
    <!-- Inner flame -->
    <polygon points="-8,2 -5,12 0,14 5,12 8,2" fill="#00d4ff" opacity="0.9"/>
  </g>
  
  <!-- Orbiting dots (representing code/projects) -->
  <g transform="translate(100, 100)" opacity="0.6">
    <circle cx="50" cy="0" r="3" fill="#8338ec"/>
    <circle cx="-35" cy="35" r="3" fill="#ff006e"/>
    <circle cx="-35" cy="-35" r="3" fill="#00d4ff"/>
  </g>
</svg>