<svg width="129" height="24" viewBox="0 0 129 24" fill="none" xmlns="http://www.w3.org/2000/svg">
<g clip-path="url(#clip0_2005_790)">
<path d="M9 23C12.866 23 16 20.002 16 16.304C16 14.9465 15.0567 12.5234 13.8627 10M9 23C5.134 23 2 20.002 2 16.304C2 14.9465 2.94326 12.5234 4.13726 10M9 23L13.8627 10M9 23L4.13726 10M13.8627 10C11.8041 5.64916 9 1 9 1C9 1 6.19592 5.64916 4.13726 10" stroke="#FF6060" stroke-width="2" stroke-linecap="round" stroke-linejoin="round"/>
<path d="M125.109 13.3405C124.448 13.3405 123.88 13.2184 123.404 12.9744C122.932 12.7253 122.564 12.3745 122.298 11.922C122.036 11.4644 121.893 10.9254 121.867 10.3052L121.86 10.1221H123.48L123.488 10.328C123.514 10.6636 123.596 10.9509 123.734 11.1898C123.877 11.4237 124.067 11.6016 124.302 11.7237C124.538 11.8457 124.812 11.9067 125.124 11.9067C125.431 11.9067 125.695 11.8482 125.915 11.7313C126.14 11.6144 126.312 11.4466 126.43 11.228C126.553 11.0042 126.614 10.7399 126.614 10.4348V10.4272C126.614 10.0154 126.499 9.66199 126.268 9.36711C126.038 9.06713 125.618 8.75191 125.009 8.42143L124.202 8.00961C123.48 7.64354 122.938 7.219 122.574 6.736C122.216 6.25299 122.036 5.65051 122.036 4.92854V4.92091C122.036 4.33622 122.162 3.82525 122.413 3.38801C122.669 2.95076 123.03 2.61011 123.496 2.36607C123.962 2.12202 124.504 2 125.124 2C125.754 2 126.289 2.12202 126.729 2.36607C127.17 2.61011 127.51 2.9533 127.751 3.39563C127.991 3.83796 128.124 4.36419 128.15 4.9743L128.158 5.20309H126.545L126.53 4.99718C126.514 4.66162 126.448 4.3769 126.33 4.14302C126.212 3.90914 126.051 3.73119 125.846 3.60917C125.641 3.48715 125.398 3.42868 125.116 3.43376C124.83 3.43376 124.581 3.48969 124.371 3.60154C124.161 3.7134 124 3.8761 123.887 4.08963C123.775 4.29809 123.718 4.54468 123.718 4.8294V4.84465C123.718 5.22597 123.834 5.56407 124.064 5.85896C124.295 6.14876 124.673 6.43094 125.201 6.70549L126.015 7.13257C126.573 7.42237 127.019 7.71726 127.351 8.01723C127.689 8.31721 127.93 8.65023 128.073 9.01629C128.222 9.38236 128.296 9.8069 128.296 10.2899V10.3052C128.296 10.9254 128.168 11.4644 127.912 11.922C127.656 12.3745 127.29 12.7227 126.814 12.9668C126.338 13.2108 125.769 13.3354 125.109 13.3405Z" fill="#45544F"/>
<path d="M98.6648 13.1727V2.16778H100.331V11.7465H103.934V13.1727H98.6648Z" fill="#45544F"/>
<path d="M86.8983 13.1727V2.16778H89.5788C90.5055 2.16778 91.2864 2.36861 91.9213 2.77027C92.5562 3.17192 93.035 3.77949 93.3575 4.59298C93.6852 5.40138 93.8491 6.42077 93.8491 7.65117V7.66642C93.8491 8.89173 93.6852 9.91367 93.3575 10.7322C93.035 11.5457 92.5562 12.1558 91.9213 12.5626C91.2915 12.9693 90.5107 13.1727 89.5788 13.1727H86.8983ZM88.5649 11.7465H89.4328C90.0319 11.7465 90.5337 11.6067 90.9382 11.3271C91.3427 11.0475 91.6448 10.6077 91.8445 10.0077C92.0442 9.4027 92.144 8.62226 92.144 7.66642V7.65117C92.144 6.70041 92.0442 5.9276 91.8445 5.33274C91.6448 4.73788 91.3401 4.30063 90.9305 4.021C90.526 3.73628 90.0268 3.59392 89.4328 3.59392H88.5649V11.7465Z" fill="#45544F"/>
<path d="M65.6541 13.1727V2.16778H71.0534V3.59392H67.3284V6.8809H70.8384V8.24603H67.3284V11.7465H71.0534V13.1727H65.6541Z" fill="#45544F"/>
<path d="M60.0704 13.1727V3.59392H57.7509V2.16778H64.0642V3.59392H61.737V13.1727H60.0704Z" fill="#45544F"/>
<path d="M45.3392 13.1727L42.605 2.16778H44.3331L46.33 11.289H46.3838L48.3807 2.16778H50.1088L47.3822 13.1727H45.3392Z" fill="#45544F"/>
<path d="M39.3868 13.1727V2.16778H41.0612V13.1727H39.3868Z" fill="#45544F"/>
<path d="M31.2609 13.1727V2.16778H34.3638C35.0653 2.16778 35.6516 2.29235 36.1226 2.54147C36.5937 2.7906 36.9445 3.15667 37.1749 3.63968C37.4104 4.12268 37.5282 4.715 37.5282 5.41663V5.43188C37.5282 6.14876 37.3848 6.77667 37.0981 7.3156C36.8113 7.84945 36.3966 8.23077 35.8538 8.45957L37.7509 13.1727H35.946L34.2409 8.74174C34.2 8.74174 34.1564 8.74174 34.1104 8.74174C34.0694 8.74174 34.0284 8.74174 33.9875 8.74174H32.9352V13.1727H31.2609ZM32.9352 7.47576H34.1795C34.7376 7.47576 35.1498 7.3156 35.416 6.9953C35.6874 6.6699 35.8231 6.17164 35.8231 5.50052V5.47764C35.8231 4.8116 35.6849 4.31843 35.4084 3.99812C35.1319 3.67272 34.7274 3.51003 34.1948 3.51003H32.9352V7.47576Z" fill="#45544F"/>
<path d="M125.722 22.4834C125.31 22.4834 124.944 22.405 124.625 22.2481C124.306 22.0912 124.052 21.8777 123.861 21.6075C123.671 21.3344 123.56 21.0293 123.528 20.6923L123.523 20.6357H124.449L124.454 20.6705C124.483 20.8536 124.553 21.0206 124.664 21.1717C124.779 21.3228 124.928 21.4419 125.112 21.529C125.296 21.6162 125.503 21.6598 125.731 21.6598C125.991 21.6598 126.221 21.6031 126.42 21.4898C126.619 21.3736 126.774 21.2153 126.885 21.0148C126.999 20.8143 127.056 20.5834 127.056 20.3219V20.3132C127.056 20.0546 126.999 19.8251 126.885 19.6246C126.771 19.4242 126.616 19.2687 126.42 19.1583C126.224 19.045 125.997 18.9884 125.74 18.9884C125.55 18.9884 125.373 19.0174 125.209 19.0755C125.048 19.1307 124.904 19.215 124.779 19.3283C124.723 19.3806 124.67 19.4372 124.621 19.4982C124.571 19.5563 124.527 19.6217 124.489 19.6943H123.637L123.953 16.0424H127.64V16.8704H124.73L124.537 18.8751H124.607C124.698 18.7327 124.811 18.6121 124.945 18.5133C125.083 18.4146 125.238 18.339 125.411 18.2867C125.583 18.2344 125.766 18.2083 125.959 18.2083C126.357 18.2083 126.708 18.2984 127.013 18.4785C127.32 18.6586 127.561 18.9056 127.737 19.2193C127.912 19.5331 128 19.8919 128 20.2957V20.3045C128 20.7315 127.902 21.1092 127.706 21.4375C127.513 21.7658 127.245 22.0229 126.903 22.2089C126.563 22.3919 126.17 22.4834 125.722 22.4834Z" fill="#91A19C"/>
<path d="M119.916 22.4834C119.427 22.4834 119.009 22.3498 118.661 22.0825C118.312 21.8152 118.045 21.4361 117.857 20.9451C117.67 20.4512 117.576 19.8658 117.576 19.1888V19.1801C117.576 18.5032 117.67 17.9192 117.857 17.4282C118.045 16.9372 118.312 16.5581 118.661 16.2908C119.009 16.0235 119.427 15.8899 119.916 15.8899C120.404 15.8899 120.823 16.0235 121.171 16.2908C121.519 16.5581 121.787 16.9372 121.974 17.4282C122.164 17.9192 122.259 18.5032 122.259 19.1801V19.1888C122.259 19.8658 122.164 20.4512 121.974 20.9451C121.787 21.4361 121.519 21.8152 121.171 22.0825C120.823 22.3498 120.404 22.4834 119.916 22.4834ZM119.916 21.6685C120.2 21.6685 120.441 21.5683 120.64 21.3678C120.842 21.1673 120.995 20.8826 121.101 20.5136C121.209 20.1418 121.263 19.7002 121.263 19.1888V19.1801C121.263 18.6688 121.209 18.2286 121.101 17.8597C120.995 17.4907 120.842 17.2074 120.64 17.0099C120.441 16.8094 120.2 16.7092 119.916 16.7092C119.635 16.7092 119.393 16.8094 119.192 17.0099C118.993 17.2074 118.839 17.4907 118.731 17.8597C118.625 18.2286 118.573 18.6688 118.573 19.1801V19.1888C118.573 19.7002 118.625 20.1418 118.731 20.5136C118.839 20.8826 118.993 21.1673 119.192 21.3678C119.393 21.5683 119.635 21.6685 119.916 21.6685Z" fill="#91A19C"/>
<path d="M114.07 22.4834C113.581 22.4834 113.163 22.3498 112.815 22.0825C112.466 21.8152 112.199 21.4361 112.011 20.9451C111.824 20.4512 111.731 19.8658 111.731 19.1888V19.1801C111.731 18.5032 111.824 17.9192 112.011 17.4282C112.199 16.9372 112.466 16.5581 112.815 16.2908C113.163 16.0235 113.581 15.8899 114.07 15.8899C114.558 15.8899 114.977 16.0235 115.325 16.2908C115.673 16.5581 115.941 16.9372 116.128 17.4282C116.318 17.9192 116.413 18.5032 116.413 19.1801V19.1888C116.413 19.8658 116.318 20.4512 116.128 20.9451C115.941 21.4361 115.673 21.8152 115.325 22.0825C114.977 22.3498 114.558 22.4834 114.07 22.4834ZM114.07 21.6685C114.354 21.6685 114.595 21.5683 114.794 21.3678C114.996 21.1673 115.149 20.8826 115.255 20.5136C115.363 20.1418 115.417 19.7002 115.417 19.1888V19.1801C115.417 18.6688 115.363 18.2286 115.255 17.8597C115.149 17.4907 114.996 17.2074 114.794 17.0099C114.595 16.8094 114.354 16.7092 114.07 16.7092C113.789 16.7092 113.548 16.8094 113.346 17.0099C113.147 17.2074 112.993 17.4907 112.885 17.8597C112.779 18.2286 112.727 18.6688 112.727 19.1801V19.1888C112.727 19.7002 112.779 20.1418 112.885 20.5136C112.993 20.8826 113.147 21.1673 113.346 21.3678C113.548 21.5683 113.789 21.6685 114.07 21.6685Z" fill="#91A19C"/>
<path d="M95.4787 22.4224C95.0164 22.4224 94.617 22.3236 94.2805 22.1261C93.947 21.9256 93.6895 21.6409 93.5081 21.2719C93.3267 20.903 93.236 20.4628 93.236 19.9515V19.9428C93.236 19.4401 93.3252 19.0072 93.5037 18.6441C93.6851 18.2809 93.9426 18.0006 94.2761 17.803C94.6126 17.6054 95.012 17.5067 95.4743 17.5067C95.8751 17.5067 96.2189 17.5764 96.5057 17.7158C96.7953 17.8524 97.025 18.0412 97.1947 18.2824C97.3673 18.5206 97.4756 18.7923 97.5195 19.0973L97.5239 19.1191H96.6066L96.6022 19.1104C96.5495 18.878 96.4281 18.6848 96.2379 18.5308C96.0478 18.3739 95.7947 18.2954 95.4787 18.2954C95.2153 18.2954 94.9886 18.3623 94.7984 18.4959C94.6082 18.6267 94.4619 18.8155 94.3595 19.0624C94.26 19.3094 94.2103 19.6028 94.2103 19.9428V19.9515C94.2103 20.3001 94.2615 20.5993 94.3639 20.8492C94.4663 21.0991 94.6126 21.2923 94.8028 21.4288C94.993 21.5625 95.2183 21.6293 95.4787 21.6293C95.7771 21.6293 96.0185 21.5639 96.2028 21.4332C96.3901 21.3024 96.5218 21.1092 96.5978 20.8536L96.6066 20.8318L97.5195 20.8274L97.5107 20.8666C97.4551 21.1746 97.3425 21.4448 97.1728 21.6772C97.0031 21.9096 96.7763 22.0927 96.4925 22.2263C96.2116 22.3571 95.8737 22.4224 95.4787 22.4224Z" fill="#91A19C"/>
<path d="M88.0835 22.3309V17.5982H89.0359V18.3129H89.1105C89.2275 18.0601 89.4001 17.8626 89.6283 17.7202C89.8566 17.5778 90.1448 17.5067 90.4929 17.5067C91.0284 17.5067 91.438 17.6592 91.7218 17.9642C92.0056 18.2693 92.1475 18.7036 92.1475 19.2673V22.3309H91.1908V19.4895C91.1908 19.0944 91.1074 18.801 90.9406 18.6092C90.7768 18.4146 90.5193 18.3172 90.1682 18.3172C89.937 18.3172 89.7366 18.3681 89.5669 18.4698C89.3972 18.5685 89.2655 18.7109 89.1719 18.8968C89.0812 19.0799 89.0359 19.2992 89.0359 19.5549V22.3309H88.0835Z" fill="#91A19C"/>
<path d="M85.7442 22.3309V17.5982H86.701V22.3309H85.7442ZM86.227 16.7527C86.0631 16.7527 85.9227 16.6946 85.8057 16.5784C85.6886 16.4622 85.6301 16.3228 85.6301 16.1601C85.6301 15.9974 85.6886 15.8594 85.8057 15.746C85.9227 15.6298 86.0631 15.5717 86.227 15.5717C86.3908 15.5717 86.5313 15.6298 86.6483 15.746C86.7654 15.8594 86.8239 15.9974 86.8239 16.1601C86.8239 16.3228 86.7654 16.4622 86.6483 16.5784C86.5313 16.6946 86.3908 16.7527 86.227 16.7527Z" fill="#91A19C"/>
<path d="M82.6194 22.4224C82.2361 22.4224 81.9025 22.3672 81.6187 22.2568C81.3349 22.1435 81.1096 21.9881 80.9428 21.7905C80.776 21.5901 80.678 21.3576 80.6488 21.0933V21.0845H81.6055V21.0933C81.667 21.2705 81.784 21.4143 81.9566 21.5247C82.1293 21.6351 82.3575 21.6903 82.6413 21.6903C82.8373 21.6903 83.0085 21.6627 83.1548 21.6075C83.304 21.5523 83.4211 21.4753 83.5059 21.3765C83.5908 21.2777 83.6332 21.1644 83.6332 21.0366V21.0279C83.6332 20.8797 83.5732 20.7548 83.4532 20.6531C83.3333 20.5514 83.1358 20.4686 82.8607 20.4047L82.0971 20.2304C81.7986 20.1636 81.5514 20.072 81.3554 19.9558C81.1593 19.8396 81.0145 19.6973 80.9209 19.5287C80.8272 19.3573 80.7804 19.1569 80.7804 18.9274V18.923C80.7804 18.647 80.8594 18.4029 81.0174 18.1909C81.1754 17.9759 81.3934 17.8088 81.6714 17.6897C81.9523 17.5677 82.2726 17.5067 82.6325 17.5067C82.9953 17.5067 83.3113 17.5633 83.5805 17.6766C83.8526 17.787 84.0677 17.941 84.2257 18.1386C84.3837 18.3332 84.4773 18.5598 84.5066 18.8184V18.8228H83.5937V18.814C83.5498 18.6484 83.4445 18.5104 83.2777 18.4C83.1138 18.2896 82.8973 18.2344 82.6281 18.2344C82.4555 18.2344 82.3019 18.262 82.1673 18.3172C82.0327 18.3695 81.9259 18.4436 81.8469 18.5395C81.7709 18.6325 81.7328 18.7429 81.7328 18.8707V18.8794C81.7328 18.9782 81.7577 19.0654 81.8074 19.1409C81.8601 19.2135 81.942 19.2789 82.0532 19.337C82.1644 19.3922 82.3078 19.4416 82.4833 19.4852L83.2426 19.6551C83.699 19.7626 84.0384 19.9181 84.2608 20.1214C84.4861 20.3248 84.5987 20.5979 84.5987 20.9407V20.9494C84.5987 21.24 84.5124 21.4971 84.3398 21.7208C84.1672 21.9416 83.9316 22.1145 83.6332 22.2394C83.3377 22.3614 82.9997 22.4224 82.6194 22.4224Z" fill="#91A19C"/>
<path d="M75.8511 24C75.4473 24 75.0962 23.9448 74.7978 23.8344C74.5023 23.724 74.2682 23.57 74.0956 23.3725C73.9229 23.1749 73.8176 22.9454 73.7796 22.6839L73.784 22.6752H74.7495L74.7539 22.6839C74.7949 22.8466 74.9104 22.9802 75.1006 23.0848C75.2908 23.1894 75.5453 23.2417 75.8643 23.2417C76.2563 23.2417 76.5621 23.1531 76.7815 22.9759C77.0039 22.7987 77.1151 22.5503 77.1151 22.2307V21.3024H77.0405C76.9469 21.4709 76.8269 21.6162 76.6806 21.7382C76.5343 21.8573 76.3675 21.9474 76.1803 22.0084C75.993 22.0694 75.7897 22.0999 75.5702 22.0999C75.1664 22.0999 74.8153 22.0041 74.5169 21.8123C74.2214 21.6177 73.9932 21.3504 73.8322 21.0104C73.6742 20.6676 73.5952 20.274 73.5952 19.8294V19.8207C73.5952 19.3704 73.6757 18.9724 73.8366 18.6267C73.9976 18.278 74.2272 18.0064 74.5257 17.8117C74.8241 17.6142 75.1796 17.5154 75.5922 17.5154C75.8145 17.5154 76.0179 17.5502 76.2022 17.62C76.3895 17.6897 76.5548 17.7885 76.6982 17.9163C76.8415 18.0441 76.96 18.1967 77.0536 18.3739H77.1107V17.5982H78.0631V22.235C78.0631 22.5924 77.9724 22.9032 77.791 23.1676C77.6125 23.432 77.3579 23.6368 77.0273 23.7821C76.6967 23.9274 76.3046 24 75.8511 24ZM75.8379 21.3155C76.1071 21.3155 76.3383 21.253 76.5314 21.1281C76.7245 21.0003 76.8722 20.8245 76.9747 20.6008C77.08 20.3771 77.1326 20.1185 77.1326 19.8251V19.8164C77.1326 19.5258 77.08 19.2673 76.9747 19.0407C76.8722 18.814 76.7245 18.6368 76.5314 18.509C76.3383 18.3812 76.1071 18.3172 75.8379 18.3172C75.5688 18.3172 75.3391 18.3812 75.1489 18.509C74.9616 18.6368 74.8183 18.814 74.7188 19.0407C74.6193 19.2644 74.5696 19.5229 74.5696 19.8164V19.8251C74.5696 20.1185 74.6193 20.3771 74.7188 20.6008C74.8183 20.8245 74.9616 21.0003 75.1489 21.1281C75.3391 21.253 75.5688 21.3155 75.8379 21.3155Z" fill="#91A19C"/>
<path d="M68.4471 22.3309V17.5982H69.3995V18.3129H69.4741C69.5912 18.0601 69.7638 17.8626 69.992 17.7202C70.2202 17.5778 70.5084 17.5067 70.8566 17.5067C71.392 17.5067 71.8017 17.6592 72.0855 17.9642C72.3693 18.2693 72.5112 18.7036 72.5112 19.2673V22.3309H71.5544V19.4895C71.5544 19.0944 71.471 18.801 71.3043 18.6092C71.1404 18.4146 70.8829 18.3172 70.5318 18.3172C70.3007 18.3172 70.1003 18.3681 69.9306 18.4698C69.7609 18.5685 69.6292 18.7109 69.5356 18.8968C69.4449 19.0799 69.3995 19.2992 69.3995 19.5549V22.3309H68.4471Z" fill="#91A19C"/>
<path d="M66.1079 22.3309V17.5982H67.0646V22.3309H66.1079ZM66.5906 16.7527C66.4268 16.7527 66.2864 16.6946 66.1693 16.5784C66.0523 16.4622 65.9938 16.3228 65.9938 16.1601C65.9938 15.9974 66.0523 15.8594 66.1693 15.746C66.2864 15.6298 66.4268 15.5717 66.5906 15.5717C66.7545 15.5717 66.8949 15.6298 67.012 15.746C67.129 15.8594 67.1875 15.9974 67.1875 16.1601C67.1875 16.3228 67.129 16.4622 67.012 16.5784C66.8949 16.6946 66.7545 16.7527 66.5906 16.7527Z" fill="#91A19C"/>
<path d="M64.4621 22.3614C63.9412 22.3614 63.5638 22.2626 63.3297 22.0651C63.0986 21.8646 62.983 21.5378 62.983 21.0845V18.3434H62.2369V17.5982H62.983V16.4041H63.9573V17.5982H64.9799V18.3434H63.9573V20.8536C63.9573 21.1092 64.0085 21.2937 64.111 21.407C64.2134 21.5174 64.3831 21.5726 64.6201 21.5726C64.6903 21.5726 64.7503 21.5712 64.8 21.5683C64.8527 21.5654 64.9126 21.561 64.9799 21.5552V22.3135C64.9039 22.3251 64.8219 22.3353 64.7342 22.344C64.6464 22.3556 64.5557 22.3614 64.4621 22.3614Z" fill="#91A19C"/>
<path d="M59.5861 22.4224C59.2028 22.4224 58.8692 22.3672 58.5854 22.2568C58.3016 22.1435 58.0763 21.9881 57.9095 21.7905C57.7427 21.5901 57.6447 21.3576 57.6155 21.0933V21.0845H58.5722V21.0933C58.6337 21.2705 58.7507 21.4143 58.9233 21.5247C59.096 21.6351 59.3242 21.6903 59.608 21.6903C59.804 21.6903 59.9752 21.6627 60.1215 21.6075C60.2707 21.5523 60.3877 21.4753 60.4726 21.3765C60.5574 21.2777 60.5999 21.1644 60.5999 21.0366V21.0279C60.5999 20.8797 60.5399 20.7548 60.4199 20.6531C60.3 20.5514 60.1025 20.4686 59.8274 20.4047L59.0638 20.2304C58.7653 20.1636 58.5181 20.072 58.3221 19.9558C58.126 19.8396 57.9812 19.6973 57.8876 19.5287C57.7939 19.3573 57.7471 19.1569 57.7471 18.9274V18.923C57.7471 18.647 57.8261 18.4029 57.9841 18.1909C58.1421 17.9759 58.3601 17.8088 58.6381 17.6897C58.9189 17.5677 59.2393 17.5067 59.5992 17.5067C59.962 17.5067 60.278 17.5633 60.5472 17.6766C60.8193 17.787 61.0344 17.941 61.1924 18.1386C61.3504 18.3332 61.444 18.5598 61.4733 18.8184V18.8228H60.5604V18.814C60.5165 18.6484 60.4112 18.5104 60.2444 18.4C60.0805 18.2896 59.864 18.2344 59.5948 18.2344C59.4222 18.2344 59.2686 18.262 59.134 18.3172C58.9994 18.3695 58.8926 18.4436 58.8136 18.5395C58.7375 18.6325 58.6995 18.7429 58.6995 18.8707V18.8794C58.6995 18.9782 58.7244 19.0654 58.7741 19.1409C58.8268 19.2135 58.9087 19.2789 59.0199 19.337C59.1311 19.3922 59.2744 19.4416 59.45 19.4852L60.2093 19.6551C60.6657 19.7626 61.0051 19.9181 61.2275 20.1214C61.4528 20.3248 61.5654 20.5979 61.5654 20.9407V20.9494C61.5654 21.24 61.4791 21.4971 61.3065 21.7208C61.1339 21.9416 60.8983 22.1145 60.5999 22.2394C60.3044 22.3614 59.9664 22.4224 59.5861 22.4224Z" fill="#91A19C"/>
<path d="M51.041 22.3614C50.5202 22.3614 50.1427 22.2626 49.9087 22.0651C49.6775 21.8646 49.5619 21.5378 49.5619 21.0845V18.3434H48.8158V17.5982H49.5619V16.4041H50.5363V17.5982H51.5589V18.3434H50.5363V20.8536C50.5363 21.1092 50.5875 21.2937 50.6899 21.407C50.7923 21.5174 50.962 21.5726 51.199 21.5726C51.2692 21.5726 51.3292 21.5712 51.3789 21.5683C51.4316 21.5654 51.4916 21.561 51.5589 21.5552V22.3135C51.4828 22.3251 51.4009 22.3353 51.3131 22.344C51.2253 22.3556 51.1346 22.3614 51.041 22.3614Z" fill="#91A19C"/>
<path d="M43.8865 22.4093C43.4886 22.4093 43.1404 22.3106 42.842 22.113C42.5464 21.9125 42.3168 21.6293 42.1529 21.2632C41.992 20.8971 41.9115 20.4657 41.9115 19.9689V19.9602C41.9115 19.4605 41.992 19.0276 42.1529 18.6615C42.3138 18.2954 42.5421 18.0136 42.8376 17.8161C43.1331 17.6156 43.4827 17.5154 43.8865 17.5154C44.1059 17.5154 44.3108 17.5502 44.5009 17.62C44.6911 17.6868 44.8594 17.7827 45.0057 17.9076C45.152 18.0296 45.2675 18.1763 45.3524 18.3477H45.4226V15.7417H46.3794V22.3309H45.4226V21.5857H45.3524C45.2588 21.7571 45.1403 21.9053 44.9969 22.0302C44.8535 22.1522 44.6882 22.2467 44.5009 22.3135C44.3137 22.3774 44.1089 22.4093 43.8865 22.4093ZM44.1586 21.5988C44.4219 21.5988 44.6502 21.5334 44.8433 21.4027C45.0364 21.2719 45.1841 21.0845 45.2865 20.8405C45.389 20.5935 45.4402 20.303 45.4402 19.9689V19.9602C45.4402 19.6232 45.3875 19.3326 45.2822 19.0886C45.1798 18.8445 45.032 18.6572 44.8389 18.5264C44.6487 18.3928 44.4219 18.326 44.1586 18.326C43.8953 18.326 43.6671 18.3928 43.474 18.5264C43.2838 18.6572 43.1375 18.8445 43.0351 19.0886C42.9356 19.3297 42.8858 19.6203 42.8858 19.9602V19.9689C42.8858 20.3059 42.9356 20.5964 43.0351 20.8405C43.1375 21.0845 43.2838 21.2719 43.474 21.4027C43.6671 21.5334 43.8953 21.5988 44.1586 21.5988Z" fill="#91A19C"/>
<path d="M38.7603 22.4224C38.2951 22.4224 37.8928 22.3236 37.5534 22.1261C37.2169 21.9285 36.958 21.6467 36.7766 21.2806C36.5952 20.9117 36.5045 20.4744 36.5045 19.9689V19.9602C36.5045 19.4518 36.5952 19.0145 36.7766 18.6484C36.9609 18.2824 37.2213 18.0006 37.5578 17.803C37.8972 17.6054 38.298 17.5067 38.7603 17.5067C39.2256 17.5067 39.6264 17.6054 39.9629 17.803C40.2994 17.9977 40.5583 18.2795 40.7397 18.6484C40.924 19.0145 41.0162 19.4518 41.0162 19.9602V19.9689C41.0162 20.4744 40.924 20.9117 40.7397 21.2806C40.5583 21.6467 40.2994 21.9285 39.9629 22.1261C39.6293 22.3236 39.2285 22.4224 38.7603 22.4224ZM38.7603 21.6293C39.0324 21.6293 39.2636 21.5639 39.4538 21.4332C39.644 21.2995 39.7888 21.1092 39.8883 20.8623C39.9877 20.6153 40.0375 20.3175 40.0375 19.9689V19.9602C40.0375 19.6086 39.9877 19.3094 39.8883 19.0624C39.7888 18.8155 39.644 18.6267 39.4538 18.4959C39.2636 18.3623 39.0324 18.2954 38.7603 18.2954C38.4882 18.2954 38.2571 18.3623 38.0669 18.4959C37.8767 18.6267 37.7304 18.8155 37.628 19.0624C37.5285 19.3094 37.4788 19.6086 37.4788 19.9602V19.9689C37.4788 20.3175 37.5285 20.6153 37.628 20.8623C37.7304 21.1092 37.8767 21.2995 38.0669 21.4332C38.2571 21.5639 38.4882 21.6293 38.7603 21.6293Z" fill="#91A19C"/>
<path d="M33.3533 22.4224C32.8881 22.4224 32.4858 22.3236 32.1463 22.1261C31.8099 21.9285 31.5509 21.6467 31.3695 21.2806C31.1881 20.9117 31.0974 20.4744 31.0974 19.9689V19.9602C31.0974 19.4518 31.1881 19.0145 31.3695 18.6484C31.5539 18.2824 31.8143 18.0006 32.1507 17.803C32.4901 17.6054 32.891 17.5067 33.3533 17.5067C33.8185 17.5067 34.2193 17.6054 34.5558 17.803C34.8923 17.9977 35.1512 18.2795 35.3326 18.6484C35.517 19.0145 35.6091 19.4518 35.6091 19.9602V19.9689C35.6091 20.4744 35.517 20.9117 35.3326 21.2806C35.1512 21.6467 34.8923 21.9285 34.5558 22.1261C34.2223 22.3236 33.8214 22.4224 33.3533 22.4224ZM33.3533 21.6293C33.6254 21.6293 33.8565 21.5639 34.0467 21.4332C34.2369 21.2995 34.3817 21.1092 34.4812 20.8623C34.5807 20.6153 34.6304 20.3175 34.6304 19.9689V19.9602C34.6304 19.6086 34.5807 19.3094 34.4812 19.0624C34.3817 18.8155 34.2369 18.6267 34.0467 18.4959C33.8565 18.3623 33.6254 18.2954 33.3533 18.2954C33.0812 18.2954 32.85 18.3623 32.6598 18.4959C32.4697 18.6267 32.3234 18.8155 32.221 19.0624C32.1215 19.3094 32.0717 19.6086 32.0717 19.9602V19.9689C32.0717 20.3175 32.1215 20.6153 32.221 20.8623C32.3234 21.1092 32.4697 21.2995 32.6598 21.4332C32.85 21.5639 33.0812 21.6293 33.3533 21.6293Z" fill="#91A19C"/>
<path d="M28.9644 22.3309V15.7417H29.9168V22.3309H28.9644Z" fill="#91A19C"/>
<path fill-rule="evenodd" clip-rule="evenodd" d="M99.4023 22.1261C99.7358 22.3236 100.135 22.4224 100.6 22.4224C100.908 22.4224 101.178 22.3832 101.412 22.3048C101.649 22.2263 101.851 22.1232 102.018 21.9953C102.188 21.8675 102.324 21.7266 102.426 21.5726C102.529 21.4157 102.6 21.2589 102.641 21.102L102.65 21.0627H101.728L101.711 21.0976C101.676 21.179 101.61 21.2618 101.513 21.346C101.42 21.4303 101.298 21.5014 101.149 21.5595C101.003 21.6147 100.827 21.6424 100.622 21.6424C100.356 21.6424 100.125 21.5842 99.929 21.468C99.7358 21.3518 99.5866 21.1833 99.4813 20.9625C99.3814 20.7531 99.3289 20.5033 99.3237 20.2129H102.698V19.8817C102.698 19.4053 102.612 18.9898 102.439 18.6354C102.267 18.278 102.02 18.0006 101.698 17.803C101.379 17.6054 100.997 17.5067 100.552 17.5067C100.11 17.5067 99.7241 17.6098 99.3935 17.8161C99.0658 18.0224 98.8113 18.31 98.6299 18.6789C98.4514 19.0479 98.3621 19.4794 98.3621 19.9733V19.9776C98.3621 20.4773 98.4514 20.9102 98.6299 21.2763C98.8113 21.6424 99.0687 21.9256 99.4023 22.1261ZM99.3344 19.5375H101.757C101.737 19.3093 101.688 19.1132 101.61 18.9491C101.507 18.7254 101.366 18.5584 101.184 18.448C101.003 18.3376 100.794 18.2824 100.557 18.2824C100.32 18.2824 100.107 18.3405 99.9202 18.4567C99.7358 18.57 99.5896 18.7385 99.4813 18.9622C99.4039 19.1265 99.355 19.3183 99.3344 19.5375Z" fill="#91A19C"/>
<path fill-rule="evenodd" clip-rule="evenodd" d="M106.275 21.6641V22.3309H110.55V21.4942H107.623V21.4121L108.966 20.0822C109.349 19.7045 109.647 19.382 109.861 19.1147C110.077 18.8475 110.23 18.602 110.317 18.3783C110.405 18.1545 110.449 17.9236 110.449 17.6853V17.6723C110.449 17.3265 110.36 17.02 110.181 16.7527C110.003 16.4825 109.758 16.2719 109.448 16.1208C109.141 15.9669 108.791 15.8899 108.399 15.8899C107.975 15.8899 107.599 15.9741 107.271 16.1426C106.944 16.3082 106.688 16.5392 106.503 16.8355C106.319 17.129 106.225 17.4674 106.223 17.8509L106.227 17.8597L107.157 17.864V17.8466C107.157 17.6171 107.207 17.4166 107.307 17.2452C107.406 17.0738 107.545 16.9401 107.724 16.8443C107.902 16.7484 108.108 16.7004 108.342 16.7004C108.574 16.7004 108.772 16.7469 108.939 16.8399C109.106 16.93 109.233 17.0563 109.321 17.219C109.412 17.3788 109.457 17.5619 109.457 17.7681V17.7769C109.457 17.9483 109.425 18.1081 109.361 18.2562C109.299 18.4044 109.191 18.5729 109.036 18.7617C108.881 18.9477 108.663 19.1859 108.382 19.4765L106.275 21.6641Z" fill="#91A19C"/>
<path fill-rule="evenodd" clip-rule="evenodd" d="M104.947 13.1727L107.682 2.16778H109.717L112.451 13.1727H110.746L110.145 10.4501H107.256L106.652 13.1727H104.947ZM108.68 4.02862H108.726L109.853 9.13069H107.549L108.68 4.02862Z" fill="#45544F"/>
<path fill-rule="evenodd" clip-rule="evenodd" d="M117.336 2.16778C117.945 2.16778 118.46 2.27709 118.88 2.49572C119.305 2.71434 119.627 3.02702 119.848 3.43376C120.073 3.84051 120.185 4.32351 120.185 4.88278V4.89803C120.185 5.34545 120.109 5.73948 119.955 6.08013C119.801 6.42077 119.586 6.70041 119.31 6.91903C119.033 7.13257 118.716 7.28001 118.357 7.36136V7.40712C118.782 7.47322 119.154 7.61558 119.471 7.8342C119.794 8.04774 120.042 8.34771 120.216 8.73412C120.395 9.11544 120.485 9.58573 120.485 10.145V10.1603C120.485 10.7958 120.362 11.3398 120.116 11.7923C119.871 12.2397 119.512 12.5829 119.041 12.8219C118.57 13.0557 118.002 13.1727 117.336 13.1727H115.685H114.01V2.16778H117.336ZM116.745 6.87327C117.344 6.87327 117.789 6.73346 118.081 6.45382C118.373 6.17419 118.519 5.75219 118.519 5.18784V5.17258C118.519 4.62348 118.381 4.20912 118.104 3.92948C117.833 3.64985 117.449 3.51003 116.952 3.51003H115.685V6.87327H116.745ZM118.304 11.3805C117.991 11.6804 117.541 11.8304 116.952 11.8304H115.685V8.13163H116.86C117.295 8.13163 117.653 8.20027 117.935 8.33754C118.217 8.46973 118.427 8.6731 118.565 8.94765C118.708 9.22221 118.78 9.56794 118.78 9.98485V10.0077C118.78 10.6178 118.621 11.0754 118.304 11.3805Z" fill="#45544F"/>
<path fill-rule="evenodd" clip-rule="evenodd" d="M75.8998 13.1727V2.16778H78.1656L80.3161 10.8771H80.3699L82.5127 2.16778H84.7785V13.1727H83.25V4.70737H83.2021L81.0995 13.1727H79.5865L77.4717 4.70737H77.4282V13.1727H75.8998Z" fill="#45544F"/>
<path fill-rule="evenodd" clip-rule="evenodd" d="M50.2163 13.1727L52.9506 2.16778H54.9859L57.7201 13.1727H56.0151L55.4136 10.4501H52.5251L51.9214 13.1727H50.2163ZM53.949 4.02862H53.9951L55.1222 9.13069H52.8177L53.949 4.02862Z" fill="#45544F"/>
<path fill-rule="evenodd" clip-rule="evenodd" d="M24.095 2.16778H24.9322H26.284C26.9906 2.16778 27.5845 2.31522 28.0658 2.61011C28.5523 2.905 28.9209 3.32191 29.1718 3.86084C29.4278 4.39469 29.5558 5.03022 29.5558 5.76744V5.7827C29.5558 6.51483 29.4278 7.15037 29.1718 7.6893C28.9209 8.22823 28.5523 8.64514 28.0658 8.94003C27.5845 9.22983 26.9906 9.37473 26.284 9.37473H24.9322V13.1727H23.2578V2.16778H24.095ZM27.3899 7.43763C27.0878 7.80878 26.6142 7.99435 25.9691 7.99435H24.9322V3.55579H25.9691C26.6142 3.55579 27.0878 3.74136 27.3899 4.11251C27.6972 4.48367 27.8508 5.03531 27.8508 5.76744V5.79032C27.8508 6.51737 27.6972 7.06647 27.3899 7.43763Z" fill="#45544F"/>
<path fill-rule="evenodd" clip-rule="evenodd" d="M25.5499 16.0424C25.9449 16.0424 26.2843 16.1063 26.5681 16.2341C26.8549 16.362 27.0743 16.5436 27.2265 16.7789C27.3786 17.0113 27.4547 17.2873 27.4547 17.6069V17.6156C27.4547 17.8364 27.4049 18.0427 27.3055 18.2344C27.206 18.4233 27.0728 18.5831 26.9061 18.7138C26.7393 18.8446 26.5506 18.9273 26.3399 18.9622V19.0363C26.6266 19.0654 26.8768 19.1482 27.0904 19.2847C27.304 19.4213 27.4708 19.5985 27.5907 19.8164C27.7107 20.0314 27.7707 20.2754 27.7707 20.5485V20.5572C27.7707 20.9233 27.6829 21.24 27.5073 21.5073C27.3347 21.7716 27.0875 21.975 26.7656 22.1174C26.4438 22.2597 26.0576 22.3309 25.607 22.3309H23.9831H23V16.0424H23.9831H25.5499ZM26.4145 21.2676C26.1863 21.4448 25.8498 21.5334 25.4051 21.5334H23.9831V19.4634H25.348C25.6582 19.4634 25.9171 19.5026 26.1249 19.581C26.3355 19.6566 26.4935 19.7699 26.5989 19.921C26.7042 20.072 26.7568 20.2609 26.7568 20.4875V20.4962C26.7568 20.8332 26.6427 21.0903 26.4145 21.2676ZM26.138 18.4828C25.9157 18.6397 25.5865 18.7182 25.1505 18.7182H23.9831V16.8399H25.3173C25.683 16.8399 25.9669 16.9227 26.1687 17.0883C26.3706 17.251 26.4716 17.4805 26.4716 17.7769V17.7856C26.4716 18.0906 26.3604 18.323 26.138 18.4828Z" fill="#91A19C"/>
<path fill-rule="evenodd" clip-rule="evenodd" d="M54.6223 22.4224C54.1571 22.4224 53.7577 22.3236 53.4241 22.1261C53.0906 21.9256 52.8331 21.6424 52.6517 21.2763C52.4732 20.9102 52.384 20.4773 52.384 19.9776V19.9733C52.384 19.4794 52.4732 19.0479 52.6517 18.6789C52.8331 18.31 53.0876 18.0224 53.4153 17.8161C53.746 17.6098 54.1322 17.5067 54.574 17.5067C55.0187 17.5067 55.4006 17.6054 55.7195 17.803C56.0413 18.0006 56.2886 18.278 56.4612 18.6354C56.6338 18.9898 56.7201 19.4053 56.7201 19.8817V20.2129H53.3455C53.3507 20.5033 53.4032 20.7531 53.5031 20.9625C53.6084 21.1833 53.7577 21.3518 53.9508 21.468C54.1468 21.5842 54.378 21.6424 54.6442 21.6424C54.849 21.6424 55.0246 21.6147 55.1709 21.5595C55.3201 21.5014 55.4415 21.4303 55.5352 21.346C55.6317 21.2618 55.6975 21.179 55.7326 21.0976L55.7502 21.0627H56.6719L56.6631 21.102C56.6221 21.2589 56.5504 21.4157 56.448 21.5726C56.3456 21.7266 56.2096 21.8675 56.0399 21.9953C55.8731 22.1232 55.6712 22.2263 55.4342 22.3048C55.2001 22.3832 54.9295 22.4224 54.6223 22.4224ZM55.206 18.448C55.3874 18.5584 55.5293 18.7254 55.6317 18.9491C55.71 19.1132 55.7591 19.3093 55.7793 19.5375H53.3563C53.3768 19.3183 53.4257 19.1265 53.5031 18.9622C53.6114 18.7385 53.7577 18.57 53.942 18.4567C54.1293 18.3405 54.3414 18.2824 54.5784 18.2824C54.8154 18.2824 55.0246 18.3376 55.206 18.448Z" fill="#91A19C"/>
</g>
<defs>
<clipPath id="clip0_2005_790">
<rect width="129" height="24" fill="white"/>
</clipPath>
</defs>
</svg>
